<svg width="105" height="48" viewBox="0 0 105 48" fill="none" xmlns="http://www.w3.org/2000/svg">
<g clip-path="url(#clip0_1501_157)">
<path d="M42.538 32.0679L39.6476 31.0801C39.6107 30.8121 39.2774 28.8625 39.3709 28.7958L42.0153 29.4132C42.3707 29.5971 42.4568 31.6086 42.538 32.0679Z" fill="#DB9D8B"/>
<path d="M49.5795 9.84225C48.1982 16.2469 48.5463 22.8677 48.4418 29.3823C44.7753 29.0378 41.1112 28.4612 37.5874 27.3758C37.7473 19.282 41.6992 12.4427 49.5795 9.84225Z" fill="#DB9D8B"/>
<path d="M53.9151 8.76183C52.9418 8.77171 51.9681 8.782 50.9939 8.7927C50.7381 8.69392 51.6249 7.38013 52.2854 7.31099C53.0812 7.22826 53.6949 8.07901 53.9151 8.76183Z" fill="#DB9D8B"/>
<path d="M55.3295 30.3084C53.3927 30.3388 51.4556 30.3697 49.518 30.401C49.3999 30.3183 49.4368 30.2553 49.4257 30.2158C49.2757 29.6478 49.4774 19.8389 49.5487 18.4547C49.6939 15.653 49.9534 12.1117 50.7479 9.47182C51.6729 9.5138 52.6273 9.39033 53.5461 9.53356C53.7146 9.55949 54.1205 9.54591 54.2226 9.68791C55.6542 16.4544 55.2606 23.4332 55.3295 30.3084Z" fill="#DB9D8B"/>
<path d="M65.5381 28.8266C65.425 29.6169 65.3303 30.4108 65.2307 31.2036L62.4633 31.8827C62.5936 31.1171 62.7191 30.3442 62.7707 29.5675C63.6629 29.2893 64.5546 29.0114 65.4459 28.734C65.4771 28.7645 65.5078 28.7954 65.5381 28.8266Z" fill="#DB9D8B"/>
<path d="M67.4446 27.2215C67.0399 27.3684 66.623 27.4845 66.2146 27.6228C63.0807 28.681 59.8065 29.1218 56.5287 29.4132C56.4779 29.3819 56.4266 29.351 56.375 29.3206C56.3024 24.5186 56.4734 17.8237 55.9445 13.207C55.8424 12.3105 55.5817 11.4067 55.4525 10.5214C55.4402 10.4337 55.3627 10.0633 55.4218 10.0275C63.398 12.3747 67.1408 19.2215 67.4446 27.2215Z" fill="#DB9D8B"/>
<path d="M42.4015 32.0679L39.5111 31.0801C39.4742 30.8121 39.1408 28.8625 39.2343 28.7958L41.8787 29.4132C42.2342 29.5971 42.3203 31.6086 42.4015 32.0679Z" fill="#D28649"/>
<path d="M65.4016 28.8266C65.2885 29.6169 65.1937 30.4108 65.0941 31.2036L62.3267 31.8827C62.4571 31.1171 62.5826 30.3442 62.6342 29.5675C63.5263 29.2893 64.4181 29.0114 65.3094 28.734C65.3405 28.7645 65.3713 28.7954 65.4016 28.8266Z" fill="#D28649"/>
<path d="M54.209 30.1849C52.5691 30.1948 50.9291 30.2051 49.2892 30.2158C49.1391 29.6478 49.3409 19.8389 49.4122 18.4547C49.5573 15.653 49.8169 12.1117 50.6114 9.47182C51.5363 9.5138 52.4908 9.39033 53.4095 9.53356C52.3186 9.60765 52.8819 9.64716 53.1636 10.9844C54.423 16.9409 54.1992 24.0975 54.209 30.1849Z" fill="#FAB377"/>
<path d="M55.193 30.3084C53.2562 30.3388 51.319 30.3697 49.3814 30.401C49.2634 30.3183 49.3003 30.2553 49.2892 30.2158C50.9291 30.2051 52.5691 30.1948 54.209 30.1849C54.1992 24.0975 54.423 16.9409 53.1636 10.9844C52.8819 9.64717 52.3186 9.60765 53.4095 9.53357C53.5781 9.5595 53.9839 9.54592 54.086 9.68791C55.5177 16.4544 55.1241 23.4332 55.193 30.3084Z" fill="#E89A5D"/>
<path d="M66.0781 27.6228C62.9442 28.681 59.67 29.1218 56.3922 29.4132C56.3414 29.3819 56.2901 29.351 56.2384 29.3206C56.1659 24.5186 56.3368 17.8237 55.808 13.207C55.7059 12.3105 55.4451 11.4067 55.316 10.5214C55.7834 10.8708 56.3098 11.1178 56.8227 11.3857C56.8288 11.3882 56.8829 11.2906 56.9457 11.324C63.4214 14.7393 65.837 20.5229 66.0781 27.6228Z" fill="#FAB377"/>
<path d="M67.308 27.2215C66.9034 27.3684 66.4864 27.4845 66.0781 27.6228C65.837 20.5229 63.4214 14.7393 56.9457 11.324C56.8829 11.2906 56.8288 11.3882 56.8227 11.3857C56.3098 11.1178 55.7834 10.8708 55.316 10.5214C55.3037 10.4337 55.2262 10.0633 55.2852 10.0275C63.2615 12.3747 67.0042 19.2215 67.308 27.2215Z" fill="#E89A5D"/>
<path d="M53.7785 8.76183C52.8052 8.77171 51.8315 8.782 50.8574 8.7927C50.6016 8.69392 51.4884 7.38013 52.1488 7.31099C52.9446 7.22826 53.5584 8.07901 53.7785 8.76183Z" fill="#FAB377"/>
<path d="M49.4429 9.84225C48.0617 16.2469 48.4098 22.8677 48.3052 29.3823C44.6387 29.0378 40.9747 28.4612 37.4509 27.3758C37.6108 19.282 41.5626 12.4427 49.4429 9.84225Z" fill="#FAB377"/>
<path d="M44.5231 14.3491C45.1 14.2454 45.3201 14.6566 45.2304 15.1826C45.1762 15.5011 43.3633 17.7138 43.0164 18.0843C42.3363 18.8115 41.7975 19.561 42.1555 17.899C42.319 17.1421 43.7483 14.4874 44.5231 14.3491Z" fill="#FFB679"/>
<path d="M73.3176 8.51118C72.7653 16.0235 69.6253 24.1049 63.7793 29.0119C62.9257 29.728 60.1755 31.7716 59.1067 31.4184C57.8681 31.0097 58.9148 27.4956 59.258 26.6053C59.5876 26.4399 59.9197 26.2818 60.253 26.1238C60.4228 26.6189 60.5691 27.1215 60.7499 27.6117C64.3648 24.6643 67.543 18.7992 63.8863 14.6368C62.8777 13.4885 61.6023 12.9045 60.3391 12.1204C60.3576 12.0648 60.4264 12.0586 60.4695 12.0327C61.0156 12.5587 61.9664 12.8118 62.5678 13.3897C65.5836 11.0066 68.0349 8.01234 70.2894 4.90075C70.2255 6.29603 69.2464 7.67896 68.4298 8.77295C69.2686 7.98147 69.9967 7.01219 70.549 5.99475C70.8503 5.7836 71.9523 4.37351 72.2574 4.41919C73.0347 5.2897 73.2598 7.18258 73.1442 8.33585H73.2303C73.3102 5.62185 73.4996 2.71152 71.9327 0.34943C71.9388 0.300039 71.929 0.246945 71.9327 0.19632H72.0188C73.5353 2.91032 73.5402 5.47121 73.3164 8.50995L73.3176 8.51118Z" fill="#E68F51"/>
<path d="M70.3756 4.87853C70.3469 4.88594 70.3182 4.89334 70.2895 4.90075C68.0349 8.01234 65.5836 11.0066 62.5678 13.3897C61.9664 12.8119 61.0156 12.5587 60.4695 12.0327C65.0289 9.31008 67.9944 5.06868 69.6622 0.0432129C70.4063 1.52863 70.6203 3.24494 70.3756 4.87853Z" fill="#FAA665"/>
<path d="M73.2303 8.33584H73.1442C73.2598 7.18381 73.0347 5.28969 72.2574 4.41919C71.9524 4.37227 70.8503 5.7836 70.549 5.99474C71.2414 4.72171 71.8109 3.00045 71.9327 1.55332C71.9634 1.18783 71.8933 0.686515 71.9327 0.349426C73.4996 2.71152 73.3102 5.62185 73.2303 8.33584Z" fill="#FAA665"/>
<path d="M45.544 26.6053C45.2217 26.451 44.9007 26.2917 44.549 26.2114C44.3977 26.614 44.1197 27.0387 44.073 27.5018C43.9377 27.6413 43.0189 26.6634 42.8615 26.4954C39.9083 23.3406 37.7018 18.5214 40.9144 14.7245C41.8 13.6774 42.7348 13.1539 43.8995 12.5143C44.0873 12.376 44.2747 12.2373 44.4616 12.0981C39.7607 9.32488 36.7953 5.17856 35.0955 -0.00125122C35.0599 0.0728343 35.023 0.14445 34.9873 0.217301C35.4239 0.906296 35.6047 1.79903 35.9393 2.5584C37.7116 6.57507 40.5971 9.83484 44.2882 12.1414C43.6068 12.5427 42.8824 12.8686 42.2772 13.3885C40.0412 11.5907 37.2541 8.68157 35.5076 6.40961C35.1127 5.89595 34.7155 5.31809 34.4264 4.81184C34.7696 6.93192 35.6502 7.60486 36.2861 8.79393C36.2554 8.78406 36.2259 8.76677 36.2 8.75072C35.82 8.52352 35.1829 7.63079 34.9024 7.24061C34.547 6.7467 34.2715 6.0787 33.9074 5.62184C33.6983 5.36007 32.6737 4.5155 32.5877 4.50562C31.9887 4.44141 31.5102 7.81847 31.5705 8.29015C31.4426 8.16791 31.6344 7.7839 31.4401 7.78637C31.8152 14.8171 34.2407 21.9503 39.0535 27.1499C40.2773 28.471 42.5048 30.4207 44.1369 31.1097C44.6375 31.3221 45.4001 31.6592 45.8675 31.2851C46.7358 30.5899 45.9154 27.5586 45.5428 26.6029L45.544 26.6053ZM36.3735 8.86185C36.3612 8.87543 36.3513 8.8779 36.3415 8.87296C36.3378 8.87296 36.3341 8.87049 36.3316 8.86802C36.3083 8.85073 36.2923 8.80381 36.2874 8.7964C36.2972 8.7964 36.3636 8.78035 36.3735 8.82727C36.3735 8.83098 36.3747 8.83591 36.3747 8.84085C36.3747 8.84703 36.3747 8.85444 36.3735 8.86061V8.86185Z" fill="#E68F51"/>
<path d="M44.2894 12.1426C43.608 12.5439 42.8836 12.8699 42.2785 13.3897C40.0424 11.5919 37.2553 8.68281 35.5088 6.41085C35.114 5.89719 34.7167 5.31932 34.4277 4.81307C34.1927 3.35976 34.3477 1.55948 34.9898 0.218536C35.4264 0.907532 35.6072 1.80026 35.9417 2.55964C37.7141 6.57631 40.5996 9.83607 44.2907 12.1426H44.2894Z" fill="#FAA665"/>
<path d="M36.2 8.75195C35.82 8.52475 35.1829 7.63202 34.9024 7.24184C34.547 6.74794 34.2715 6.07993 33.9074 5.62307C33.6983 5.3613 32.6738 4.51673 32.5877 4.50685C31.9887 4.44264 31.5102 7.81971 31.5705 8.29138C31.4426 8.16914 31.6344 7.78513 31.4401 7.7876C31.3023 5.21313 31.3085 2.47938 32.8029 0.261749C32.7635 3.7734 34.0144 6.14167 36.1988 8.75071L36.2 8.75195Z" fill="#FAA665"/>
<path d="M36.2874 8.79518C36.2874 8.79518 36.3919 8.76678 36.3735 8.86062C36.3255 8.91124 36.2923 8.79641 36.2874 8.79518Z" fill="#FFD398"/>
<path d="M0 47.332C1.39354 43.7882 2.45622 40.1827 3.18927 36.5143L6.88898 35.908L6.35641 41.6101L7.80529 36.3426L11.3636 35.7216C10.9404 39.0999 10.7289 42.146 10.7289 44.86V46.4603L7.57037 47.0196L8.12754 40.2124L6.09935 47.7506L4.39586 47.9839L5.41795 38.4096L3.22002 46.8961L0 47.3308L0 47.332Z" fill="black"/>
<path d="M12.8813 36.2661L15.5442 35.7685C14.4704 39.9234 13.7693 43.524 13.4385 46.5701L10.9773 47.2542L12.8813 36.2661Z" fill="black"/>
<path d="M21.5513 39.0171C21.2204 39.1418 20.8281 39.2925 20.3742 39.4678L19.2131 39.9185C19.2131 39.432 19.0791 39.1875 18.8109 39.1875C18.4284 39.1875 18.0471 39.4048 17.6646 39.8407C17.3965 40.1617 17.2833 40.4729 17.3239 40.7729C17.3547 40.9693 17.5502 41.068 17.9118 41.068C18.1074 41.068 18.3657 41.0372 18.6855 40.9754C19.1295 40.8828 19.5218 40.8359 19.8625 40.8359C20.7297 40.8359 21.2352 41.1359 21.3803 41.7373C21.4209 41.9237 21.4418 42.12 21.4418 42.3275C21.4418 42.9906 21.1946 43.7055 20.6989 44.4723C20.0581 45.4774 19.1602 46.3219 18.0053 47.006C17.3965 47.369 16.7975 47.5505 16.2096 47.5505C15.6733 47.5505 15.1469 47.3999 14.6303 47.0998C14.8886 46.4775 15.3006 45.5613 15.8689 44.3488C16.1997 44.5772 16.5503 44.6908 16.9217 44.6908C17.0865 44.6908 17.2575 44.6649 17.4322 44.613C17.7519 44.5303 18.057 44.4105 18.346 44.2562C18.7593 44.029 18.9659 43.7956 18.9659 43.5561C18.9659 43.2968 18.7544 43.1671 18.3312 43.1671C18.0422 43.1671 17.6216 43.2264 17.0693 43.3462C16.5171 43.4659 16.0964 43.5252 15.8074 43.5252C15.4249 43.5252 15.1309 43.4524 14.9255 43.3079C14.5233 43.0387 14.3585 42.6189 14.4298 42.0484C14.5639 40.8989 15.3019 39.5666 16.6438 38.054C18.0164 36.4994 19.1984 35.687 20.1885 35.6141C21.1491 35.5524 21.6288 36.2772 21.6288 37.7898C21.6288 38.1528 21.6029 38.5615 21.5513 39.0171Z" fill="black"/>
<path d="M28.4402 39.0171C28.1094 39.1418 27.7183 39.2925 27.2632 39.4678L26.1021 39.9185C26.1021 39.432 25.968 39.1875 25.6999 39.1875C25.3174 39.1875 24.9361 39.4048 24.5548 39.8407C24.2867 40.1617 24.1723 40.4729 24.2141 40.7729C24.2449 40.9693 24.4404 41.068 24.802 41.068C24.9976 41.068 25.2559 41.0372 25.5757 40.9754C26.0197 40.8828 26.412 40.8359 26.7527 40.8359C27.6199 40.8359 28.1254 41.1359 28.2705 41.7373C28.3111 41.9237 28.332 42.12 28.332 42.3275C28.332 42.9906 28.0836 43.7055 27.5891 44.4723C26.9495 45.4774 26.0504 46.3219 24.8955 47.006C24.2867 47.369 23.6877 47.5505 23.0998 47.5505C22.5635 47.5505 22.0371 47.3999 21.5205 47.0998C21.7788 46.4775 22.1908 45.5613 22.7591 44.3488C23.0887 44.5772 23.4405 44.6908 23.8119 44.6908C23.9767 44.6908 24.1477 44.6649 24.3224 44.613C24.6421 44.5303 24.9472 44.4105 25.2362 44.2562C25.6495 44.029 25.8561 43.7956 25.8561 43.5561C25.8561 43.2968 25.6446 43.1671 25.2215 43.1671C24.9324 43.1671 24.5118 43.2264 23.9595 43.3462C23.4073 43.4659 22.9866 43.5252 22.6976 43.5252C22.3151 43.5252 22.0211 43.4524 21.8157 43.3079C21.4135 43.0387 21.2475 42.6189 21.32 42.0484C21.4541 40.8989 22.1921 39.5666 23.534 38.054C24.9066 36.4994 26.0886 35.687 27.0799 35.6141C28.0405 35.5524 28.5202 36.2772 28.5202 37.7898C28.5202 38.1528 28.4944 38.5615 28.4427 39.0171H28.4402Z" fill="black"/>
<path d="M30.113 36.2661L32.7758 35.7685C31.7021 39.9234 31.001 43.524 30.6702 46.5701L28.209 47.2542L30.113 36.2661Z" fill="black"/>
<path d="M37.4816 35.0844C38.5751 35.0844 39.3499 35.6956 39.8038 36.918C40.0412 37.5502 40.1605 38.2442 40.1605 39.0011C40.1605 39.758 40.0522 40.5136 39.8358 41.3632C39.4545 42.814 38.7928 44.1512 37.8543 45.3737C36.7092 46.8665 35.4953 47.6123 34.2161 47.6123C33.1116 47.6123 32.3269 47.0011 31.8632 45.7787C31.6369 45.1773 31.5225 44.5044 31.5225 43.7586C31.5225 43.0128 31.6357 42.225 31.8632 41.3644C32.2445 39.9037 32.9001 38.5615 33.8299 37.3391C34.975 35.8364 36.1939 35.0856 37.4841 35.0856L37.4816 35.0844ZM36.9245 38.9393C36.3562 38.9393 35.7794 39.4061 35.1902 40.3383C34.7155 41.0742 34.3846 41.7941 34.1989 42.4991C34.1054 42.872 34.0599 43.2091 34.0599 43.5092C34.0599 43.9339 34.1632 44.2809 34.3699 44.5501C34.6072 44.8501 34.9369 45.0008 35.3612 45.0008C35.9393 45.0008 36.4608 44.6958 36.9245 44.0833C37.2959 43.5968 37.564 43.0214 37.7301 42.3584C37.9257 41.5817 37.9675 40.8149 37.8543 40.058C37.7301 39.3122 37.4201 38.9393 36.9257 38.9393H36.9245Z" fill="black"/>
<path d="M41.0743 36.313L43.7532 35.7685C43.7323 36.0895 43.7224 36.5451 43.7224 37.1366C43.7224 38.5454 43.7692 39.7839 43.8614 40.8507C43.9131 41.4619 43.9906 41.9546 44.0939 42.3275L45.1467 36.2661L47.8096 35.7685C46.7358 39.9234 46.0347 43.524 45.7039 46.5701L43.2575 47.2542C43.2477 47.2332 43.18 47.0517 43.0558 46.7097L42.2502 44.4093C42.1161 44.0364 42.0386 43.7981 42.0177 43.6944C41.8012 44.9168 41.6303 46.1034 41.506 47.253L39.0289 47.9987L41.0731 36.3105L41.0743 36.313Z" fill="black"/>
<path d="M54.9618 35.5042C56.0355 35.5042 56.8251 36.0895 57.3307 37.2601L55.5817 39.1875C55.3443 38.9393 55.07 38.8146 54.7613 38.8146C54.2139 38.8146 53.6469 39.2863 53.0578 40.2284C52.572 41.0051 52.2583 41.7311 52.1132 42.4041C52.0406 42.7251 52.0049 43.0153 52.0049 43.2746C52.0049 43.9685 52.2583 44.4451 52.7638 44.7044C52.9286 44.7872 53.1045 44.8291 53.2903 44.8291C53.8265 44.8291 54.3898 44.4303 54.9777 43.6327L55.4734 45.4823C54.4513 46.622 53.4145 47.1925 52.3616 47.1925C51.3088 47.1925 50.5044 46.6232 50.0087 45.4823C49.7099 44.8193 49.5598 44.0784 49.5598 43.2598C49.5598 42.6584 49.6373 42.0213 49.7923 41.3484C50.1022 39.9704 50.6901 38.7121 51.5572 37.5712C52.599 36.1932 53.7355 35.5042 54.963 35.5042H54.9618Z" fill="black"/>
<path d="M57.4844 36.2661L60.1472 35.7685C59.4044 38.638 58.8312 41.2866 58.429 43.7104L61.1533 43.2906L60.9209 46.1812C59.5175 46.3059 57.7365 46.6627 55.5792 47.2542L57.4832 36.2661H57.4844Z" fill="black"/>
<path d="M64.6526 38.5763C64.5702 38.8776 64.4976 39.1739 64.4361 39.4653L64.2664 40.3223L66.7435 39.7938L66.6045 41.9398C65.4299 42.1472 64.5086 42.3287 63.8396 42.4843C63.7977 42.6918 63.7621 42.8992 63.7313 43.1066L63.6157 43.7117L66.4963 43.2918L66.2945 46.1824C64.8088 46.3071 62.9245 46.664 60.6441 47.2554L62.4866 36.1117L67.6426 35.3499L67.4409 38.238C66.4286 38.3306 65.5 38.4442 64.6538 38.5788L64.6526 38.5763Z" fill="black"/>
<path d="M72.5649 35.0844C73.6583 35.0844 74.4332 35.6956 74.887 36.918C75.1244 37.5502 75.2425 38.2442 75.2425 39.0011C75.2425 39.758 75.1342 40.5136 74.9178 41.3632C74.5353 42.814 73.8748 44.1512 72.9363 45.3737C71.7912 46.8665 70.5773 47.6123 69.2981 47.6123C68.1936 47.6123 67.4089 47.0011 66.9452 45.7787C66.7189 45.1773 66.6045 44.5044 66.6045 43.7586C66.6045 43.0128 66.7177 42.225 66.9452 41.3644C67.3265 39.9037 67.9821 38.5615 68.9119 37.3391C70.057 35.8364 71.2746 35.0856 72.5661 35.0856L72.5649 35.0844ZM72.0077 38.9393C71.4395 38.9393 70.8626 39.4061 70.2735 40.3383C69.7987 41.0742 69.4678 41.7941 69.2821 42.4991C69.1899 42.872 69.1431 43.2091 69.1431 43.5092C69.1431 43.9339 69.2464 44.2809 69.4531 44.5501C69.6905 44.8501 70.0201 45.0008 70.4444 45.0008C71.0225 45.0008 71.544 44.6958 72.0077 44.0833C72.3791 43.5968 72.6473 43.0214 72.8121 42.3584C73.0076 41.5817 73.0495 40.8149 72.9363 40.058C72.8121 39.3122 72.5034 38.9393 72.0077 38.9393Z" fill="black"/>
<path d="M75.9239 36.25C77.524 35.7635 78.834 35.519 79.856 35.519C81.2496 35.519 81.9359 36.0055 81.915 36.9798C81.8842 38.9381 80.2435 40.9643 76.9915 43.0572C76.7639 44.3216 76.5991 45.4922 76.4958 46.5701L74.0347 47.2542C74.0654 47.027 74.1896 46.3318 74.4061 45.1711L75.0875 41.4879C75.6963 38.0997 75.9755 36.3537 75.9239 36.25ZM77.8746 38.7368C77.802 39.027 77.7356 39.3172 77.6729 39.6073L77.5031 40.4618C78.4625 39.9852 79.0824 39.4826 79.3604 38.9541C79.4022 38.8714 79.4219 38.8035 79.4219 38.7516C79.4219 38.5751 79.2927 38.4874 79.0344 38.4874C78.7761 38.4874 78.3998 38.5701 77.8734 38.7356L77.8746 38.7368Z" fill="black"/>
<path d="M78.6027 47.4407C80.1205 43.5549 81.348 39.8086 82.2877 36.2031L86.9947 35.4104C86.4584 38.5504 86.2149 42.2645 86.2666 46.5541L82.9838 47.3159L83.2163 45.3737L82.1794 45.5762L81.8547 46.9443L78.604 47.4419L78.6027 47.4407ZM83.4647 43.2832L84.1756 37.4169H84.1597L82.7046 43.4314L83.4647 43.2832Z" fill="black"/>
<path d="M93.7127 35.6129L93.6192 38.5035C92.8972 38.5454 92.2109 38.5973 91.5603 38.659C90.8789 41.5286 90.4201 44.1661 90.1827 46.5701L87.5666 47.2542L88.9909 38.985C88.7117 39.027 88.4337 39.0727 88.1545 39.1245L87.3342 39.2801L87.1484 36.3735L93.7127 35.6117V35.6129Z" fill="black"/>
<path d="M93.5737 36.25C95.1936 35.7635 96.5207 35.519 97.5526 35.519C98.9462 35.519 99.6374 36.0055 99.6276 36.9798C99.6177 38.3787 98.7395 39.7827 96.9955 41.1915C97.1394 41.5854 97.7383 42.8239 98.7912 44.9057C98.2574 45.4033 97.4505 46.133 96.3719 47.0974L94.7237 42.8078L94.7077 42.8115L94.6881 42.8078C94.4421 44.1648 94.2588 45.4181 94.1358 46.5677L91.6845 47.253C91.7054 47.0258 91.8186 46.3355 92.0252 45.186L93.5737 36.2488V36.25ZM95.5244 38.706C95.4322 39.0579 95.3485 39.411 95.2772 39.7629L95.0607 40.8199C95.4223 40.6334 95.7778 40.3902 96.1296 40.0889C96.5318 39.737 96.7999 39.3999 96.9352 39.0789C96.9868 38.9862 97.0127 38.8973 97.0127 38.8146C97.0127 38.5874 96.8626 38.4726 96.5637 38.4726C96.3264 38.4726 95.9807 38.5504 95.5269 38.706H95.5244Z" fill="black"/>
<path d="M102.011 38.5763C101.929 38.8776 101.856 39.1739 101.795 39.4653L101.625 40.3223L104.102 39.7938L103.963 41.9398C102.789 42.1472 101.867 42.3287 101.198 42.4843C101.158 42.6918 101.121 42.8992 101.09 43.1066L100.974 43.7117L103.855 43.2918L103.653 46.1824C102.167 46.3071 100.283 46.664 98.0028 47.2554L99.8453 36.1117L105.001 35.3499L104.8 38.238C103.787 38.3306 102.859 38.4442 102.011 38.5788V38.5763Z" fill="black"/>
</g>
<defs>
<clipPath id="clip0_1501_157">
<rect width="105" height="48" fill="white"/>
</clipPath>
</defs>
</svg>
